<?xml version="1.0" encoding="UTF-8"?>
<svg width="90px" height="90px" viewBox="0 0 90 90" version="1.1" xmlns="http://www.w3.org/2000/svg" xmlns:xlink="http://www.w3.org/1999/xlink">
    <g id="Start" stroke="none" stroke-width="1" fill="none" fill-rule="evenodd">
        <g transform="translate(-381.000000, -107.000000)" fill="#000000">
            <g transform="translate(80.000000, 107.000000)">
                <path d="M346,-1.13686838e-13 C358.426407,-1.13686838e-13 368.5,9.54340402 368.5,21.3157895 C368.5,24.2835885 367.859787,27.1097279 366.703062,29.6770175 C367.295531,29.6291433 367.894977,29.6052632 368.5,29.6052632 C380.926407,29.6052632 391,39.6788563 391,52.1052632 C391,64.53167 380.926407,74.6052632 368.5,74.6052632 C359.158018,74.6052632 351.145801,68.9118687 347.743857,60.8055904 L347.743935,60.5358244 C347.743935,68.3753084 348.346834,78.1967002 349.552632,90 L342.447368,90 C343.557233,76.6996253 344.127325,67.044171 344.157645,61.0336369 C340.702483,69.019083 332.753602,74.6052632 323.5,74.6052632 C311.073593,74.6052632 301,64.53167 301,52.1052632 C301,39.6788563 311.073593,29.6052632 323.5,29.6052632 C324.105023,29.6052632 324.704469,29.6291433 325.297447,29.6760126 C324.140213,27.1097279 323.5,24.2835885 323.5,21.3157895 C323.5,9.54340402 333.573593,-1.13686838e-13 346,-1.13686838e-13 Z"></path>
            </g>
        </g>
    </g>
</svg>
