<?xml version="1.0" encoding="UTF-8"?>
<svg width="100px" height="100px" viewBox="0 0 100 100" version="1.1" xmlns="http://www.w3.org/2000/svg" xmlns:xlink="http://www.w3.org/1999/xlink">
    <g stroke="none" stroke-width="1" fill="none" fill-rule="evenodd">
        <g transform="translate(-352.000000, -114.000000)" fill="#F64242">
            <g transform="translate(352.000000, 114.000000)">
                <path d="M15,15 C30.9937974,18.7403951 42.9312689,20.6105926 50.8124146,20.6105926 C58.6935603,20.6105926 70.0894221,18.7403951 85,15 C81.7208819,30.5838487 80.0813228,42.5569935 80.0813228,50.9194343 C80.0813228,59.2818751 81.7208819,70.6420637 85,85 C69.4773818,82.3957715 57.4223819,81.0936573 48.8350002,81.0936573 C40.2476185,81.0936573 28.9692851,82.3957715 15,85 C18.0440614,71.6087155 19.566092,60.203654 19.566092,50.7848156 C19.566092,41.3659772 18.0440614,29.4377053 15,15 Z" transform="translate(50.000000, 50.000000) scale(-1, -1) rotate(44.000000) translate(-50.000000, -50.000000)"></path>
            </g>
        </g>
    </g>
</svg>
