<?xml version="1.0" encoding="UTF-8"?>
<svg width="98px" height="96px" viewBox="0 0 98 96" version="1.1" xmlns="http://www.w3.org/2000/svg" xmlns:xlink="http://www.w3.org/1999/xlink">
    <g stroke="none" stroke-width="1" fill="none" fill-rule="evenodd">
        <g transform="translate(-255.000000, -91.000000)" fill="#000000">
            <g transform="translate(255.000000, 91.000000)">
                <path d="M48.8544414,0 C63.4985892,7.90725814 73.7401521,14.7539927 79.5791301,20.5402038 C89.437487,30.3094708 97.7088829,42.2222319 97.7088829,56.6837971 C97.7088829,70.0964002 92.6245436,78.2857988 79.5791301,79.8715454 C71.2310629,80.886302 61.4719499,75.8888306 50.301791,64.8791312 C50.2981951,65.2775733 50.2965666,65.6810203 50.2965666,66.088456 C50.2965666,73.92794 50.8994655,83.7493318 52.1052632,95.5526316 L45,95.5526316 C46.1410362,81.8787007 46.7115543,72.0573088 46.7115543,66.088456 L46.7105455,65.9313353 C37.2599579,76.2066555 28.2932703,80.8533922 19.8104826,79.8715454 C6.1102267,78.2857988 -4.26325641e-14,70.5101296 -4.26325641e-14,56.6837971 C-4.26325641e-14,42.03508 9.65590041,30.3743876 19.8104826,20.5402038 C25.6615807,14.8737201 35.3429003,8.02698548 48.8544414,0 Z"></path>
            </g>
        </g>
    </g>
</svg>
