<?xml version="1.0" encoding="UTF-8"?>
<svg width="1028px" height="160px" viewBox="0 0 1028 160" version="1.1" xmlns="http://www.w3.org/2000/svg" xmlns:xlink="http://www.w3.org/1999/xlink">
    <g stroke="none" stroke-width="1" fill="none" fill-rule="evenodd">
        <g transform="translate(0.000000, 31.000000)">
            <polygon fill="#ED973E" points="0 0 207 0 207 129 0 129 58.53125 64.5"></polygon>
            <polygon fill="#A15A0D" points="127 0 207 0 207 129 127 100.5"></polygon>
        </g>
        <g transform="translate(821.000000, 31.000000)">
            <polygon fill="#ED973E" transform="translate(103.500000, 64.500000) scale(-1, -1) translate(-103.500000, -64.500000) " points="0 0 207 0 207 129 0 129 58.53125 64.5"></polygon>
            <polygon fill="#A15A0D" transform="translate(40.000000, 64.500000) scale(-1, 1) translate(-40.000000, -64.500000) " points="0 0 80 0 80 129 0 100.5"></polygon>
        </g>
        <rect stroke="#979797" stroke-width="0.5" fill="#ED973E" x="120" y="0" width="789" height="129"></rect>
        <path d="M347.675781,45.0195312 L356.253906,70.4375 L364.375,45.0195312 L359.488281,45.0195312 L359.488281,36.0195312 L378.578125,36.0195312 L378.578125,45.0195312 L373.691406,45.0195312 L382.375,70.4375 L390.742188,45.0195312 L385.398438,45.0195312 L385.398438,36.0195312 L406.667969,36.0195312 L406.667969,45.0195312 L400.902344,45.0195312 L386.207031,89.28125 L376.398438,89.28125 L368.066406,65.09375 L360.15625,89.28125 L349.996094,89.28125 L334.878906,45.0195312 L329.253906,45.0195312 L329.253906,36.0195312 L353.160156,36.0195312 L353.160156,45.0195312 L347.675781,45.0195312 Z M429.484375,45.0195312 L429.484375,80 L437.640625,80 L437.640625,89 L407.6875,89 L407.6875,80 L415.667969,80 L415.667969,45.0195312 L407.6875,45.0195312 L407.6875,36.0195312 L437.640625,36.0195312 L437.640625,45.0195312 L429.484375,45.0195312 Z M482.394531,45.0195312 L475.574219,45.0195312 L475.574219,36.0195312 L499.234375,36.0195312 L499.234375,45.0195312 L491.851562,45.0195312 L491.851562,89.3515625 L480.109375,89.3515625 L457.1875,50.046875 L457.1875,80 L463.832031,80 L463.832031,89 L440.628906,89 L440.628906,80 L447.765625,80 L447.765625,45.0195312 L440.628906,45.0195312 L440.628906,36.0195312 L462.882812,36.0195312 L482.394531,69.1367188 L482.394531,45.0195312 Z M544.164062,45.0195312 L537.34375,45.0195312 L537.34375,36.0195312 L561.003906,36.0195312 L561.003906,45.0195312 L553.621094,45.0195312 L553.621094,89.3515625 L541.878906,89.3515625 L518.957031,50.046875 L518.957031,80 L525.601562,80 L525.601562,89 L502.398438,89 L502.398438,80 L509.535156,80 L509.535156,45.0195312 L502.398438,45.0195312 L502.398438,36.0195312 L524.652344,36.0195312 L544.164062,69.1367188 L544.164062,45.0195312 Z M601.257812,52.7890625 L601.257812,45.0195312 L584.839844,45.0195312 L584.839844,57.1835938 L598.09375,57.1835938 L598.09375,66.1132812 L584.839844,66.1132812 L584.839844,80 L601.257812,80 L601.257812,72.1601562 L611.417969,72.1601562 L611.417969,89 L564.695312,89 L564.695312,80 L571.09375,80 L571.09375,45.0195312 L564.695312,45.0195312 L564.695312,36.0195312 L611.417969,36.0195312 L611.417969,52.7890625 L601.257812,52.7890625 Z M664.925781,50.46875 C664.925781,53.7031412 664.169929,56.421864 662.658203,58.625 C661.146477,60.828136 658.855484,62.6210868 655.785156,64.0039062 L664.328125,80 L671.183594,80 L671.183594,89 L655.046875,89 L643.09375,65.8320312 L637.046875,65.8320312 L637.046875,80 L643.691406,80 L643.691406,89 L615.953125,89 L615.953125,80 L623.230469,80 L623.230469,45.0195312 L615.953125,45.0195312 L615.953125,36.0195312 L646.1875,36.0195312 C652.046904,36.0195312 656.634749,37.255847 659.951172,39.7285156 C663.267595,42.2011842 664.925781,45.7812266 664.925781,50.46875 Z M650.511719,51.0664062 C650.511719,49.0507712 649.867194,47.5390675 648.578125,46.53125 C647.289056,45.5234325 645.531261,45.0195312 643.304688,45.0195312 L637.046875,45.0195312 L637.046875,57.3242188 L642.109375,57.3242188 C647.710966,57.3242188 650.511719,55.2383021 650.511719,51.0664062 Z M687.53125,70.5078125 L682.046875,70.5078125 L678.742188,50.5390625 L678.742188,36.0195312 L690.554688,36.0195312 L690.554688,50.5390625 L687.53125,70.5078125 Z M678.460938,89 L678.460938,76.1679688 L691.257812,76.1679688 L691.257812,89 L678.460938,89 Z" id="WINNER!" fill="#FFFFFF" fill-rule="nonzero"></path>
    </g>
</svg>
